<?xml version="1.0" encoding="UTF-8" standalone="no"?>
<!-- Created with Inkscape (http://www.inkscape.org/) -->

<svg
   xmlns:dc="http://purl.org/dc/elements/1.1/"
   xmlns:cc="http://creativecommons.org/ns#"
   xmlns:rdf="http://www.w3.org/1999/02/22-rdf-syntax-ns#"
   xmlns:svg="http://www.w3.org/2000/svg"
   xmlns="http://www.w3.org/2000/svg"
   xmlns:sodipodi="http://sodipodi.sourceforge.net/DTD/sodipodi-0.dtd"
   xmlns:inkscape="http://www.inkscape.org/namespaces/inkscape"
   width="210mm"
   height="297mm"
   viewBox="0 0 744.09448819 1052.3622047"
   id="svg2"
   version="1.1"
   inkscape:version="0.91 r13725"
   sodipodi:docname="logo.svg">
  <defs
     id="defs4" />
  <sodipodi:namedview
     id="base"
     pagecolor="#ffffff"
     bordercolor="#666666"
     borderopacity="1.0"
     inkscape:pageopacity="0.0"
     inkscape:pageshadow="2"
     inkscape:zoom="2.8"
     inkscape:cx="436.02677"
     inkscape:cy="520.63492"
     inkscape:document-units="px"
     inkscape:current-layer="layer1"
     showgrid="false"
     inkscape:window-width="1463"
     inkscape:window-height="760"
     inkscape:window-x="-8"
     inkscape:window-y="-8"
     inkscape:window-maximized="1" />
  <metadata
     id="metadata7">
    <rdf:RDF>
      <cc:Work
         rdf:about="">
        <dc:format>image/svg+xml</dc:format>
        <dc:type
           rdf:resource="http://purl.org/dc/dcmitype/StillImage" />
        <dc:title />
      </cc:Work>
    </rdf:RDF>
  </metadata>
  <g
     inkscape:label="Layer 1"
     inkscape:groupmode="layer"
     id="layer1">
    <path
       style="fill:#795548;fill-opacity:1;fill-rule:evenodd;stroke:#000000;stroke-width:1px;stroke-linecap:butt;stroke-linejoin:miter;stroke-opacity:1"
       d="M 390.35742 432.37305 A 94.285713 96.060913 0 0 0 296.07227 528.43359 A 94.285713 96.060913 0 0 0 335.75 606.65625 C 338.85132 606.74049 341.95672 606.48099 345.04883 606.29492 C 346.02971 606.38612 347.01431 606.44926 347.99219 606.56836 C 348.77771 606.66406 349.54796 606.86488 350.33594 606.9375 C 351.96554 607.08767 355.45433 606.76067 356.53125 606.65234 C 361.83502 606.11882 361.90302 606.00772 366.89648 605.0918 C 368.36043 604.68336 369.83338 604.30418 371.28906 603.86719 C 374.1904 602.99623 377.06895 602.0518 379.94531 601.10156 C 381.26903 600.66425 385.37635 599.27095 386.67969 598.64062 C 387.63813 598.17709 388.50947 597.55123 389.42383 597.00586 C 391.56536 595.52171 393.10261 593.44643 394.60156 591.35352 C 395.31076 590.36329 397.01569 587.92295 397.5957 586.66602 C 397.8536 586.10715 397.97095 585.49452 398.1582 584.9082 C 398.215 584.33895 398.34596 583.77102 398.32812 583.19922 C 398.22233 579.80753 396.28289 577.84729 393.98242 575.64648 C 392.75733 574.86451 391.65809 574.0855 390.31836 573.51172 C 389.79423 573.28724 389.23899 573.14596 388.69336 572.98047 C 386.03768 572.17502 383.35304 571.61444 380.62891 571.09961 C 377.98682 570.52057 375.21789 570.17337 372.69141 569.14648 C 371.94332 568.84242 370.4822 567.94899 369.80078 567.39648 C 369.38847 567.06218 369.02452 566.67103 368.63672 566.30859 C 367.36587 564.68837 366.08232 563.11238 366.46289 560.89453 C 366.75648 559.18352 367.44275 558.53296 368.40625 557.14062 C 369.04891 556.37086 369.6013 555.51666 370.33398 554.83203 C 373.25717 552.10058 375.12669 551.16624 378.87695 549.48047 C 380.99645 548.52774 385.39374 546.8588 387.89062 546.26953 C 389.08137 545.98851 390.30749 545.88238 391.51562 545.68945 C 396.27434 545.53529 396.57716 545.38867 401.61133 545.85352 C 402.96431 545.97845 404.32564 546.1134 405.64844 546.42383 C 408.87651 547.18137 411.00523 548.33465 414.06836 549.56641 C 417.37881 550.89764 420.70757 552.18048 424.02734 553.48828 C 431.57265 556.47423 439.43951 559.04388 447.60547 559.54102 C 449.56849 559.66052 451.53983 559.48349 453.50586 559.43359 C 456.97768 559.34559 460.44665 559.20963 463.91797 559.10352 C 469.18659 558.64273 474.47284 558.68833 479.75586 558.70898 A 94.285713 96.060913 0 0 0 484.64258 528.43359 A 94.285713 96.060913 0 0 0 390.35742 432.37305 z M 396.61719 549.11133 C 395.40558 549.10213 394.23325 549.16204 392.06055 549.21875 C 391.0192 549.37346 389.96103 549.44542 388.93555 549.68359 C 386.54877 550.23793 382.51859 551.77849 380.47461 552.67383 C 377.40795 554.01715 375.48308 554.907 373.07227 557.125 C 372.39461 557.74846 371.88714 558.53511 371.29492 559.24023 C 370.77701 559.90065 369.97159 560.70416 369.87891 561.61523 C 369.79511 562.43891 370.84942 563.02481 371.10938 563.73242 C 371.78915 564.4118 372.86483 565.37191 373.75977 565.73828 C 376.15585 566.71918 378.78819 567.03878 381.29492 567.58984 C 384.17888 568.13837 387.04508 568.70841 389.84766 569.59961 C 390.56754 569.82853 391.29299 570.04919 391.98438 570.35352 C 393.74732 571.12953 394.84156 571.98736 396.46484 573.08008 C 397.87486 574.45835 398.68597 575.11331 399.80078 576.76562 C 401.17307 578.79957 401.89864 581.17065 401.87305 583.63281 C 401.86505 584.44942 401.6507 585.25157 401.53906 586.06055 C 401.25265 586.86374 401.04163 587.6986 400.67969 588.4707 C 400.0525 589.80861 398.22915 592.4264 397.45117 593.50586 C 395.67066 595.97634 393.79775 598.37847 391.23047 600.08594 C 390.1445 600.71431 389.1032 601.4266 387.97266 601.9707 C 386.62437 602.6196 382.41755 604.04591 381.03125 604.50391 C 378.11182 605.46841 375.19082 606.43089 372.24414 607.30859 C 370.68526 607.77291 369.1071 608.17314 367.53906 608.60547 C 362.45391 609.53153 362.15493 609.68764 356.7832 610.21484 C 354.73139 610.41622 351.96982 610.66274 349.77539 610.46484 C 349.05526 610.39984 348.34942 610.21735 347.63281 610.12109 C 346.84511 610.01528 346.05362 609.94674 345.26367 609.85938 C 343.83291 609.9454 342.39886 610.03889 340.96484 610.11719 A 94.285713 96.060913 0 0 0 390.35742 624.49414 A 94.285713 96.060913 0 0 0 478.47461 562.28125 C 473.65463 562.26093 468.83382 562.25017 464.02734 562.67188 C 460.53747 562.77855 457.04926 562.92795 453.55859 563.00391 C 451.41817 563.05051 449.27321 563.21961 447.13672 563.08203 C 438.68493 562.53758 430.5343 559.903 422.71875 556.8125 C 419.3717 555.49355 416.01493 554.19917 412.67773 552.85547 C 410.33952 551.914 407.63571 550.55707 405.14453 549.95898 C 403.91985 549.66495 402.65816 549.53879 401.4043 549.41992 C 399.07877 549.19944 397.82879 549.12052 396.61719 549.11133 z "
       id="path3336" />
    <text
       xml:space="preserve"
       style="font-style:normal;font-weight:normal;font-size:40px;line-height:125%;font-family:sans-serif;letter-spacing:0px;word-spacing:0px;fill:#000000;fill-opacity:1;stroke:#be0000;stroke-width:1px;stroke-linecap:butt;stroke-linejoin:miter;stroke-opacity:1"
       x="297.85715"
       y="541.64795"
       id="text4134"
       sodipodi:linespacing="125%"><tspan
         sodipodi:role="line"
         id="tspan4136"
         x="297.85715"
         y="541.64795"
         style="font-style:normal;font-variant:normal;font-weight:normal;font-stretch:normal;font-size:38.75px;font-family:Lobster;-inkscape-font-specification:Lobster;fill:#ff5722;fill-opacity:1;stroke:none;stroke-opacity:1">Memo Reese</tspan></text>
  </g>
</svg>
